<svg xmlns="http://www.w3.org/2000/svg" width="160" height="160" viewBox="0 0 160 160" role="img" aria-label="Minha Loja">
  <defs>
    <linearGradient id="g" x1="0" y1="0" x2="1" y2="1">
      <stop offset="0" stop-color="#60a5fa"/>
      <stop offset="1" stop-color="#22d3ee"/>
    </linearGradient>
  </defs>
  <rect rx="24" ry="24" x="8" y="20" width="144" height="120" fill="url(#g)"/>
  <path d="M40 64c0-22 14-36 40-36s40 14 40 36h-12c0-16-10-24-28-24s-28 8-28 24H40z" fill="#0b1020" opacity="0.9"/>
  <rect x="28" y="56" width="104" height="76" rx="14" ry="14" fill="#0b1020" opacity="0.95"/>
  <path d="M48 116V84h10l14 18 14-18h10v32h-10V99l-14 17-14-17v17H48z" fill="#e6e9f2"/>
  <title>Minha Loja</title>
</svg>
